<?xml version="1.0" standalone="no"?><!DOCTYPE svg PUBLIC "-//W3C//DTD SVG 1.1//EN" "http://www.w3.org/Graphics/SVG/1.1/DTD/svg11.dtd"><svg t="1541663643638" class="icon" style="" viewBox="0 0 1024 1024" version="1.1" xmlns="http://www.w3.org/2000/svg" p-id="11726" xmlns:xlink="http://www.w3.org/1999/xlink" width="200" height="200"><defs><style type="text/css"></style></defs><path d="M511.3 751c-28.7 0-52 23.3-52 52v122.3h9V808.2c0-23.7 19.3-43 43-43s43 19.3 43 43v117.1h9V803c0-28.7-23.3-52-52-52z" fill="#FFFFFF" p-id="11727"></path><path d="M511.3 745c-32 0-58 26-58 58v122.3h6V803c0-28.7 23.3-52 52-52s52 23.3 52 52v122.3h6V803c0-32-26-58-58-58z" fill="#B3B3B3" p-id="11728"></path><path d="M161.8 593.7c0-11.3-4.3-27.9-7.3-38.1-3 10.2-7.3 26.8-7.3 38.1v11h14.6v-11zM182.4 573.7c0-11.3-4.3-27.9-7.3-38.1-3 10.2-7.3 26.8-7.3 38.1v31h14.6v-31zM203 553.7c0-11.3-4.3-27.9-7.3-38.1-3 10.2-7.3 26.8-7.3 38.1v51H203v-51zM209 533.7v71h14.6v-71c0-11.4-4.3-27.9-7.3-38.1-3 10.2-7.3 26.8-7.3 38.1zM147.2 610.7h76.4v16.7h-76.4zM284.2 485.1c0-11.3-4.3-27.9-7.3-38.1-3 10.2-7.3 26.8-7.3 38.1v11h14.6v-11z" fill="#FFFFFF" p-id="11729"></path><path d="M276.9 447c3 10.2 7.3 26.8 7.3 38.1v11h6v-31c0-11.3 4.3-27.9 7.3-38.1 3 10.2 7.3 26.8 7.3 38.1v31h6v-51c0-11.3 4.3-27.9 7.3-38.1 3 10.2 7.3 26.8 7.3 38.1v51h6v-71c0-11.3 4.3-27.9 7.3-38.1 3 10.2 7.3 26.8 7.3 38.1v-34.4c-2.2-8.1-4.3-14.2-4.5-14.7h-4.2l-1.1-0.8-0.1 0.8h-0.3c-0.3 1-7.1 20.9-9.6 38.1-2.6-9.8-5.2-17.5-5.4-18.1h-5.7c-0.3 1-7.1 20.9-9.6 38.1-2.6-9.8-5.2-17.5-5.4-18.1h-5.7c-0.3 1-7.1 20.9-9.6 38.1-2.6-9.8-5.2-17.5-5.4-18.1h-5.7c-0.2 0.6-2.2 6.6-4.5 14.7v34.4c0.4-11.3 4.7-27.9 7.7-38.1z" fill="#666666" p-id="11730"></path><path d="M304.8 465.1c0-11.3-4.3-27.9-7.3-38.1-3 10.2-7.3 26.8-7.3 38.1v31h14.6v-31zM325.5 445.1c0-11.3-4.3-27.9-7.3-38.1-3 10.2-7.3 26.8-7.3 38.1v51h14.6v-51zM331.5 425.1v71h14.6v-71c0-11.4-4.3-27.9-7.3-38.1-3 10.2-7.3 26.8-7.3 38.1zM269.6 502.1H346v16.7h-76.4zM862.1 593.7v11h14.6v-11c0-11.3-4.3-27.9-7.3-38.1-3 10.2-7.3 26.8-7.3 38.1zM856.1 593.7v-20c0-11.3-4.3-27.9-7.3-38.1-3 10.2-7.3 26.8-7.3 38.1v31h14.6v-11zM835.5 573.7v-20c0-11.3-4.3-27.9-7.3-38.1-3 10.2-7.3 26.8-7.3 38.1v51h14.6v-31zM814.9 553.7v-20c0-11.3-4.3-27.9-7.3-38.1-3 10.2-7.3 26.8-7.3 38.1v71h14.6v-51z" fill="#FFFFFF" p-id="11731"></path><path d="M807.6 495.6c3 10.2 7.3 26.8 7.3 38.1v71h6v-51c0-11.3 4.3-27.9 7.3-38.1 3 10.2 7.3 26.8 7.3 38.1v51h6v-31c0-11.3 4.3-27.9 7.3-38.1 3 10.2 7.3 26.8 7.3 38.1v31h6v-11c0-11.3 4.3-27.9 7.3-38.1 3 10.2 7.3 26.8 7.3 38.1v-22.4l2.8 2.8h80.4l2.8-2.8 3.2-3.2v-16.7l-3.2-3.2-2.8-2.8h-80.4l-2.8 2.8-2.5 2.5c-1.1-3.5-1.9-5.8-2-6.1h-5.7c-0.2 0.6-2.8 8.3-5.4 18.1-2.5-17.2-9.2-37.1-9.6-38.1H846c-0.2 0.6-2.8 8.3-5.4 18.1-2.5-17.2-9.2-37.1-9.6-38.1h-5.7c-0.2 0.6-2.8 8.3-5.4 18.1-2.5-17.2-9.2-37.1-9.6-38.1h-5.7c-0.2 0.6-2.2 6.6-4.5 14.7v34.4c0.2-11.3 4.5-27.9 7.5-38.1z m72 55.8H960v16.7h-80.4v-16.7z" fill="#666666" p-id="11732"></path><path d="M800.3 610.7h76.4v16.7h-76.4zM739.7 485.1v11h14.6v-11c0-11.3-4.3-27.9-7.3-38.1-3 10.2-7.3 26.8-7.3 38.1zM733.7 485.1v-20c0-11.3-4.3-27.9-7.3-38.1-3 10.2-7.3 26.8-7.3 38.1v31h14.6v-11zM713.1 465.1v-20c0-11.3-4.3-27.9-7.3-38.1-3 10.2-7.3 26.8-7.3 38.1v51h14.6v-31zM692.5 445.1v-20c0-11.3-4.3-27.9-7.3-38.1-3 10.2-7.3 26.8-7.3 38.1v71h14.6v-51z" fill="#FFFFFF" p-id="11733"></path><path d="M685.2 387c3 10.2 7.3 26.8 7.3 38.1v71h6v-51c0-11.3 4.3-27.9 7.3-38.1 3 10.2 7.3 26.8 7.3 38.1v51h6v-31c0-11.3 4.3-27.9 7.3-38.1 3 10.2 7.3 26.8 7.3 38.1v31h6v-11c0-11.3 4.3-27.9 7.3-38.1 3 10.2 7.3 26.8 7.3 38.1v-34.4c-2.2-8.1-4.3-14.2-4.5-14.7h-5.7c-0.2 0.6-2.8 8.3-5.4 18.1-2.5-17.2-9.2-37.1-9.6-38.1h-5.7c-0.2 0.6-2.8 8.3-5.4 18.1-2.5-17.2-9.2-37.1-9.6-38.1H703c-0.2 0.6-2.8 8.3-5.4 18.1-2.5-17.2-9.2-37.1-9.6-38.1h-5.7c-0.2 0.6-2.2 6.6-4.5 14.7v34.4c0.1-11.3 4.4-27.9 7.4-38.1z" fill="#666666" p-id="11734"></path><path d="M677.9 502.1h76.4v16.7h-76.4zM449.7 348.5v-14c0-11.8-5.4-29.4-8.8-39.4-3.4 10-8.8 27.6-8.8 39.4v14h17.6zM473.4 314.5c0-11.8-5.4-29.4-8.8-39.4-3.4 10-8.8 27.6-8.8 39.4v34h17.7v-34zM497.1 294.5c0-11.8-5.4-29.4-8.8-39.4-3.4 10-8.8 27.6-8.8 39.4v54h17.7v-54zM591.7 348.5v-14c0-11.8-5.4-29.4-8.8-39.4-3.4 10-8.8 27.6-8.8 39.4v14h17.6zM568 334.5v-20c0-11.8-5.4-29.4-8.8-39.4-3.4 10-8.8 27.6-8.8 39.4v34H568v-14zM544.3 314.5v-20c0-11.7-5.4-29.4-8.8-39.4-3.1 9-7.8 24.2-8.7 35.7v57.7h17.5v-34zM520.8 274.5c0-11.8-5.4-29.4-8.8-39.4-3.4 10-8.8 27.6-8.8 39.4v74h17.7v-74zM432.1 354.5h159.7v10.7H432.1zM203 706c0-9.4-7.6-17-17-17s-17 7.6-17 17v57h34v-57z" fill="#FFFFFF" p-id="11735"></path><path d="M206 769l3-3v-60c0-12.7-10.3-23-23-23s-23 10.3-23 23v60l3 3h40z m-37-63c0-9.4 7.6-17 17-17s17 7.6 17 17v57h-34v-57z" fill="" p-id="11736"></path><path d="M205 850.2c0-10.5-8.5-19-19-19s-19 8.5-19 19v75h38v-75zM308.8 689c-9.4 0-17 7.6-17 17v57h34v-57c0-9.4-7.6-17-17-17z" fill="#FFFFFF" p-id="11737"></path><path d="M308.8 683c-12.7 0-23 10.3-23 23v60l3 3h40l3-3v-60c0-12.7-10.3-23-23-23z m17 80h-34v-57c0-9.4 7.6-17 17-17s17 7.6 17 17v57z" fill="" p-id="11738"></path><path d="M327.8 850.2c0-10.5-8.5-19-19-19s-19 8.5-19 19v75h38v-75zM548.3 808.2c0-20.4-16.6-37-37-37s-37 16.6-37 37v117h74v-117zM486.3 610.8v66h50v-66c0-13.8-11.2-25-25-25s-25 11.2-25 25zM839.8 689c-9.4 0-17 7.6-17 17v57h34v-57c0-9.4-7.6-17-17-17z" fill="#FFFFFF" p-id="11739"></path><path d="M839.8 683c-12.7 0-23 10.3-23 23v60l3 3h40l3-3v-60c0-12.7-10.3-23-23-23z m17 80h-34v-57c0-9.4 7.6-17 17-17s17 7.6 17 17v57z" fill="" p-id="11740"></path><path d="M858.8 850.2c0-10.5-8.5-19-19-19s-19 8.5-19 19v75h38v-75zM734.1 706c0-9.4-7.6-17-17-17s-17 7.6-17 17v57h34v-57z" fill="#FFFFFF" p-id="11741"></path><path d="M737.1 769l3-3v-60c0-12.7-10.3-23-23-23s-23 10.3-23 23v60l3 3h40z m-37-63c0-9.4 7.6-17 17-17s17 7.6 17 17v57h-34v-57z" fill="" p-id="11742"></path><path d="M736.1 850.2c0-10.5-8.5-19-19-19s-19 8.5-19 19v75h38v-75zM486.3 438.8v72.4h50v-72.4c0-12-16.9-23.7-25-28-5.3 2.9-25 14.7-25 28zM308.9 551.2c-5.8 3.4-17 11.6-17 20v49.6h34v-49.6c0-8.4-11.2-16.7-17-20z" fill="#FFFFFF" p-id="11743"></path><path d="M310.3 545.1h-2.8c-0.9 0.5-21.6 11.5-21.6 26.1v52.6l3 3h40l3-3v-52.6c0-14.6-20.7-25.7-21.6-26.1z m15.6 75.6h-34v-49.6c0-8.3 11.2-16.6 17-20 5.8 3.4 17 11.6 17 20v49.6z" fill="" p-id="11744"></path><path d="M734.1 571.1c0-8.4-11.2-16.6-17-20-5.8 3.4-17 11.6-17 20v49.6h34v-49.6z" fill="#FFFFFF" p-id="11745"></path><path d="M737.1 626.7l3-3v-52.6c0-14.6-20.7-25.6-21.6-26.1h-2.8c-0.9 0.5-21.6 11.5-21.6 26.1v52.6l3 3h40z m-37-55.6c0-8.3 11.2-16.6 17-20 5.8 3.4 17 11.6 17 20v49.6h-34v-49.6z" fill="" p-id="11746"></path><path d="M124.2 422h-0.9c-5.7 27.9-16 83.1-16.1 123.4h34c-0.2-40.3-10.4-95.6-16.1-123.4h-0.9zM84.1 422h-0.8c-5.7 27.9-16 83.1-16.1 123.4h34c-0.2-40.3-10.4-95.6-16.1-123.4h-1zM107.2 861.6h-6V574.1h-34v288h74v-288h-34zM67.2 890.8h74v34.5h-74z" fill="#FFFFFF" p-id="11747"></path><path d="M67.2 545.4c0.2-40.3 10.4-95.6 16.1-123.4h1.8c5.7 27.9 16 83.1 16.1 123.4h6c0.2-40.3 10.4-95.6 16.1-123.4h1.8c5.7 27.9 16 83.1 16.1 123.4h3.2l2.8 2.8v-1.8c0-41.1-10.6-98-16.4-126.2 4-2.3 6.7-6.6 6.7-11.5 0-7.4-6-13.3-13.3-13.3-7.4 0-13.3 6-13.3 13.3 0 4.9 2.7 9.2 6.7 11.5-3.9 18.7-9.8 50-13.4 81-3.6-31-9.5-62.4-13.4-81.1 4-2.3 6.6-6.6 6.6-11.5 0-7.4-6-13.3-13.3-13.3-7.4 0-13.3 6-13.3 13.3 0 5 2.7 9.3 6.8 11.6-5.8 28.2-16.4 85-16.4 126.2v1.8l2.8-2.8h3.2z m49.7-136.7c0-4.1 3.3-7.3 7.3-7.3 4.1 0 7.3 3.3 7.3 7.3 0 4.1-3.3 7.3-7.3 7.3s-7.3-3.3-7.3-7.3z m-40.1 0c0-4.1 3.3-7.3 7.3-7.3s7.3 3.3 7.3 7.3c0 4.1-3.3 7.3-7.3 7.3s-7.3-3.3-7.3-7.3zM67.2 862.1v-288H64l-2.8-2.8v293.6l2.8-2.8z" fill="" p-id="11748"></path><path d="M369 151.8h-0.6c-5.7 27.6-16.2 84-16.4 124.5v0.7h34c-0.2-40.6-10.7-97.4-16.4-125.2h-0.6zM426.1 368.2v-62.6h-74v556.5h74V368.2z m-40-60.9h6v554.3h-6V307.3zM352.1 890.8h74v34.5h-74zM426.1 276.2c-0.2-40.5-10.7-96.9-16.4-124.5h-1.2c-5.7 27.8-16.2 84.6-16.4 125.2h34v-0.7z" fill="#FFFFFF" p-id="11749"></path><path d="M352.1 276.9v-0.7c0.2-40.5 10.7-96.9 16.4-124.5h1.2c5.7 27.8 16.2 84.6 16.4 125.2h6c0.2-40.6 10.7-97.4 16.4-125.2h1.2c5.7 27.6 16.2 84 16.4 124.5v0.7h3l3 3v-3.7c-0.2-41.2-10.9-98.4-16.6-126 4.1-2.3 6.9-6.7 6.9-11.7 0-7.4-6-13.3-13.3-13.3-7.4 0-13.3 6-13.3 13.3 0 5 2.8 9.4 6.9 11.7-3.8 18.8-10 51.3-13.6 83.1-3.6-31.8-9.8-64.3-13.6-83.1 4.1-2.3 6.9-6.7 6.9-11.7 0-7.4-6-13.3-13.3-13.3-7.4 0-13.3 6-13.3 13.3 0 5 2.8 9.4 6.9 11.7-5.7 27.7-16.4 84.9-16.6 126v3.4l2.6-2.6h3.4z m54.1-145.2c0.9-0.4 1.8-0.6 2.9-0.6 0.5 0 1 0.1 1.5 0.1 0.7 0.1 1.4 0.4 2 0.7 0.4 0.2 0.8 0.5 1.2 0.8 0.4 0.3 0.7 0.6 1 1s0.6 0.8 0.8 1.2c0.6 1 0.9 2.2 0.9 3.5 0 1.3-0.3 2.5-0.9 3.5-0.2 0.4-0.5 0.8-0.8 1.2-0.3 0.4-0.6 0.7-1 1-1.3 1-2.9 1.7-4.7 1.7-1 0-2-0.2-2.9-0.6-2.6-1.1-4.5-3.7-4.5-6.8 0.1-3 1.9-5.6 4.5-6.7z m-42.8 11.4c-0.3-0.4-0.6-0.8-0.8-1.2-0.6-1-0.9-2.2-0.9-3.5 0-1.3 0.3-2.5 0.9-3.5 0.2-0.4 0.5-0.8 0.8-1.2s0.6-0.7 1-1c1.3-1 2.9-1.7 4.7-1.7 1 0 2 0.2 2.9 0.6 0.4 0.2 0.9 0.4 1.2 0.7 0.8 0.5 1.5 1.2 2 2 0.8 1.2 1.3 2.6 1.3 4.1 0 1.5-0.5 2.9-1.3 4.1-0.3 0.4-0.6 0.8-1 1.2-0.6 0.6-1.4 1.1-2.2 1.5-0.9 0.4-1.8 0.6-2.9 0.6-1.8 0-3.4-0.6-4.7-1.7-0.4-0.3-0.7-0.6-1-1zM426.1 351.5V862.1h3.2l2.8 2.8V371.2h159.8v493.7l2.8-2.8h3.2V305.6h-3.2l-2.8-2.8v45.6H432v-45.9l-3 3h-3v46z m165.6 3v10.7H432.1v-10.7h159.6z" fill="" p-id="11750"></path><path d="M246.6 282.1h-0.9c-4.9 23.9-13.1 67.9-15.5 105.3H263c-2.4-37.5-10.6-81.4-15.5-105.3-0.3-0.1-0.6 0-0.9 0zM229.6 533.7v391.6h34V410.9h-34z" fill="#FFFFFF" p-id="11751"></path><path d="M230.3 387.4c2.4-37.5 10.6-81.4 15.5-105.3h1.8c4.9 23.9 13.1 67.9 15.5 105.3h3.7l2.5 2.5c-2.2-38.7-10.8-85-15.9-109.6 4-2.3 6.7-6.6 6.7-11.5 0-7.4-6-13.3-13.3-13.3-7.4 0-13.3 6-13.3 13.3 0 4.9 2.7 9.2 6.7 11.5-5 24.4-13.6 70.3-15.8 108.8l1.8-1.8h4.1z m9-118.7c0-4.1 3.3-7.3 7.3-7.3s7.3 3.3 7.3 7.3c0 4.1-3.3 7.3-7.3 7.3s-7.3-3.2-7.3-7.3z" fill="" p-id="11752"></path><path d="M922.7 861.6h-6V574.1h-34v288h74v-288h-34zM939.8 422h-0.9c-5.7 27.9-16 83.1-16.1 123.4h34c-0.2-40.3-10.4-95.6-16.1-123.4h-0.9zM882.7 890.8h74v34.5h-74zM899.7 422h-0.8c-5.7 27.9-16 83.1-16.1 123.4h34c-0.2-40.3-10.4-95.6-16.1-123.4h-1z" fill="#FFFFFF" p-id="11753"></path><path d="M956.7 890.8v34.5h-74v-34.5h-3.2l-2.8-2.8v37.3h-11.9v-75.1c0-13.8-11.2-25-25-25s-25 11.2-25 25v75.1h-14.5V633.4h76.4v231.5l2.8-2.8h3.2v-288h-3.2l-2.8-2.8v33.4h-76.4V408.3l-2.7 2.7h-3.3v514.3h-34V410.9H757l-2.7-2.7V496h-76.4V302.7l-2.8 2.8h-3.2V862h3.2l2.8 2.8v-340h76.4v400.5h-12.2v-75.1c0-13.8-11.2-25-25-25s-25 11.2-25 25v75.1h-14.2V888l-2.8 2.8h-3.2v34.5h-74v-34.5h-3.2l-2.8-2.8v37.3h-37.6V808.2c0-23.7-19.3-43-43-43s-43 19.3-43 43v117.1H432V888l-2.8 2.8H426v34.5h-74v-34.5h-3.2L346 888v37.3h-12.2v-75.1c0-13.8-11.2-25-25-25s-25 11.2-25 25v75.1h-14.2V524.8H346v340.1l2.8-2.8h3.2V305.6h-3.4L346 303v193.1h-76.4V407.9l-3 3h-3v514.4h-34V410.9H226l-2.3-2.3v196.1h-76.5v-33.4l-2.8 2.8h-3.2v288h3.2l2.8 2.8V633.4h76.4v291.9H211v-75.1c0-13.8-11.2-25-25-25s-25 11.2-25 25v75.1h-13.8V888l-2.8 2.8h-3.2v34.5h-74v-34.5H64l-2.8-2.8v40.3l3 3H959.8l3-3V888l-2.8 2.8h-3.3z m-80-280.1v16.7h-76.4v-16.7h76.4z m-198.8-91.9v-16.7h76.4v16.7h-76.4z m-331.8-16.7v16.7h-76.4v-16.7h76.4zM147.2 627.4v-16.7h76.4v16.7h-76.4zM167 850.2c0-10.5 8.5-19 19-19s19 8.5 19 19v75h-38v-75z m122.8 0c0-10.5 8.5-19 19-19s19 8.5 19 19v75h-38v-75z m184.5-42c0-20.4 16.6-37 37-37s37 16.6 37 37v117h-74v-117z m223.8 42c0-10.5 8.5-19 19-19s19 8.5 19 19v75h-38v-75z m122.7 0c0-10.5 8.5-19 19-19s19 8.5 19 19v75h-38v-75zM882.8 545.4c0.2-40.3 10.4-95.6 16.1-123.4H900.6c5.7 27.9 16 83.1 16.1 123.4h6c0.2-40.3 10.4-95.6 16.1-123.4H940.5c5.7 27.9 16 83.1 16.1 123.4h3.2l2.8 2.8v-1.8c0-41.1-10.6-98-16.4-126.2 4-2.3 6.7-6.6 6.7-11.6 0-7.4-6-13.3-13.3-13.3s-13.3 6-13.3 13.3c0 4.9 2.7 9.2 6.7 11.5-3.9 18.7-9.8 50.1-13.4 81.1-3.6-31-9.5-62.4-13.4-81.1 4-2.3 6.7-6.6 6.7-11.5 0-7.4-6-13.3-13.3-13.3-7.4 0-13.3 6-13.3 13.3 0 4.9 2.7 9.3 6.7 11.6-5.8 28.2-16.4 85.1-16.4 126.2v1.8l2.8-2.8h3.4z m49.7-136.7c0-4.1 3.3-7.3 7.3-7.3 4.1 0 7.3 3.3 7.3 7.3 0 4.1-3.3 7.3-7.3 7.3-4.1 0-7.3-3.3-7.3-7.3z m-40.1 0c0-4.1 3.3-7.3 7.3-7.3 4.1 0 7.3 3.3 7.3 7.3 0 4.1-3.3 7.3-7.3 7.3s-7.3-3.3-7.3-7.3zM959.9 574.1h-3.2v288h3.2l2.8 2.8V571.3z" fill="" p-id="11754"></path><path d="M614.9 152.8h-0.8c-5.7 28-16 83.4-16.1 123.4v0.8h34c-0.2-40.1-10.5-96.1-16.2-124.2-0.4-0.1-0.7 0-0.9 0zM671.9 275.1c-0.2-39.9-10.4-94.7-16.1-122.4H654c-5.7 28.1-16 84.1-16.2 124.2h34v-0.8l0.1-1zM597.9 862.1h74V305.6h-74v556.5z m40-554.8v554.3h-6V307.3h6zM597.9 890.8h74v34.5h-74z" fill="#FFFFFF" p-id="11755"></path><path d="M597.9 276.9v-0.8c0.2-40 10.4-95.4 16.1-123.4H615.7c5.7 28.1 16 84.1 16.2 124.2h6c0.2-40.1 10.5-96.1 16.2-124.2h1.8c5.7 27.7 15.9 82.5 16.1 122.4v1.8h3.2l2.8 2.8v-4.6c-0.2-40.6-10.6-96.3-16.3-124.1 4-2.3 6.7-6.6 6.7-11.6 0-7.4-6-13.3-13.3-13.3-7.4 0-13.3 6-13.3 13.3 0 4.9 2.7 9.2 6.7 11.6-3.9 18.9-9.8 50.8-13.4 82.1-3.6-31.3-9.6-63.2-13.4-82.1 4-2.3 6.7-6.6 6.7-11.6 0-7.4-6-13.3-13.3-13.3-7.4 0-13.3 6-13.3 13.3 0 5 2.7 9.3 6.7 11.6-5.7 27.8-16 83.5-16.4 124.1v4.6l2.8-2.8h3z m49.7-137.5c0-4.1 3.3-7.3 7.3-7.3 4.1 0 7.3 3.3 7.3 7.3 0 4.1-3.3 7.3-7.3 7.3-4 0.1-7.3-3.2-7.3-7.3z m-40.1 0c0-4.1 3.3-7.3 7.3-7.3 4.1 0 7.3 3.3 7.3 7.3 0 4.1-3.3 7.3-7.3 7.3-4 0.1-7.3-3.2-7.3-7.3z" fill="" p-id="11756"></path><path d="M777.3 282.1h-0.9c-4.9 23.9-13.1 67.9-15.5 105.3h32.7c-2.4-37.5-10.6-81.4-15.5-105.3-0.2-0.1-0.5 0-0.8 0zM760.3 485.1v440.2h34V410.9h-34z" fill="#FFFFFF" p-id="11757"></path><path d="M761 387.4c2.4-37.5 10.6-81.4 15.5-105.3h1.8c4.9 23.9 13.1 67.9 15.5 105.3h4l2.1 2.1c-2.2-38.6-10.8-84.8-15.8-109.2 4-2.3 6.7-6.6 6.7-11.5 0-7.4-6-13.3-13.3-13.3-7.4 0-13.3 6-13.3 13.3 0 4.9 2.7 9.2 6.7 11.5-5 24.5-13.7 70.6-15.8 109.2l2.1-2.1h3.8z m9-118.7c0-4.1 3.3-7.3 7.3-7.3 4.1 0 7.3 3.3 7.3 7.3 0 4.1-3.3 7.3-7.3 7.3-4 0.1-7.3-3.2-7.3-7.3z" fill="" p-id="11758"></path><path d="M84.1 408.7m-7.3 0a7.3 7.3 0 1 0 14.6 0 7.3 7.3 0 1 0-14.6 0Z" fill="#FFFFFF" p-id="11759"></path><path d="M124.2 408.7m-7.3 0a7.3 7.3 0 1 0 14.6 0 7.3 7.3 0 1 0-14.6 0Z" fill="#FFFFFF" p-id="11760"></path><path d="M899.7 408.7m-7.3 0a7.3 7.3 0 1 0 14.6 0 7.3 7.3 0 1 0-14.6 0Z" fill="#FFFFFF" p-id="11761"></path><path d="M939.8 408.7m-7.3 0a7.3 7.3 0 1 0 14.6 0 7.3 7.3 0 1 0-14.6 0Z" fill="#FFFFFF" p-id="11762"></path><path d="M369 145.8c1 0 2-0.2 2.9-0.6 0.8-0.4 1.6-0.9 2.2-1.5 0.4-0.4 0.7-0.7 1-1.2 0.8-1.2 1.3-2.6 1.3-4.1 0-1.5-0.5-2.9-1.3-4.1-0.5-0.8-1.2-1.5-2-2-0.4-0.3-0.8-0.5-1.2-0.7-0.9-0.4-1.8-0.6-2.9-0.6-1.8 0-3.4 0.6-4.7 1.7-0.4 0.3-0.7 0.6-1 1s-0.6 0.8-0.8 1.2c-0.6 1-0.9 2.2-0.9 3.5 0 1.3 0.3 2.5 0.9 3.5 0.2 0.4 0.5 0.8 0.8 1.2 0.3 0.4 0.6 0.7 1 1 1.3 1 2.9 1.7 4.7 1.7z" fill="#FFFFFF" p-id="11763"></path><path d="M246.6 268.7m-7.3 0a7.3 7.3 0 1 0 14.6 0 7.3 7.3 0 1 0-14.6 0Z" fill="#FFFFFF" p-id="11764"></path><path d="M777.3 268.7m-7.3 0a7.3 7.3 0 1 0 14.6 0 7.3 7.3 0 1 0-14.6 0Z" fill="#FFFFFF" p-id="11765"></path><path d="M406.2 145.2c0.9 0.4 1.8 0.6 2.9 0.6 1.8 0 3.4-0.6 4.7-1.7 0.4-0.3 0.7-0.6 1-1 0.3-0.4 0.6-0.8 0.8-1.2 0.6-1 0.9-2.2 0.9-3.5 0-1.3-0.3-2.5-0.9-3.5-0.2-0.4-0.5-0.8-0.8-1.2s-0.6-0.7-1-1c-0.4-0.3-0.8-0.6-1.2-0.8-0.6-0.3-1.3-0.6-2-0.7-0.5-0.1-1-0.1-1.5-0.1-1 0-2 0.2-2.9 0.6-2.6 1.1-4.5 3.7-4.5 6.8 0.1 3 1.9 5.6 4.5 6.7z" fill="#FFFFFF" p-id="11766"></path><path d="M614.9 139.4m-7.3 0a7.3 7.3 0 1 0 14.6 0 7.3 7.3 0 1 0-14.6 0Z" fill="#FFFFFF" p-id="11767"></path><path d="M654.9 139.4m-7.3 0a7.3 7.3 0 1 0 14.6 0 7.3 7.3 0 1 0-14.6 0Z" fill="#FFFFFF" p-id="11768"></path><path d="M473 682.8h80.4v16.7H473z" fill="#FFFFFF" p-id="11769"></path><path d="M542.3 676.8v-66c0-17.1-13.9-31-31-31s-31 13.9-31 31v66H473l-6 6v16.7l6 6h80.4l6-6v-16.7l-6-6h-11.1z m-6-66v66h-50v-66c0-13.8 11.2-25 25-25s25 11.2 25 25z m17.1 88.7H473v-16.7h80.4v16.7z" fill="" p-id="11770"></path><path d="M473 517.2h80.4v16.7H473z" fill="#FFFFFF" p-id="11771"></path><path d="M542.3 511.2v-72.4c0-19-28.4-33.5-29.7-34.1H510c-1.2 0.6-29.7 15.1-29.7 34.1v72.4H473l-6 6v16.7l6 6h80.4l6-6v-16.7l-6-6h-11.1z m-6-72.4v72.4h-50v-72.4c0-13.3 19.7-25.1 25-28 8.1 4.4 25 16 25 28z m17.1 95.1H473v-16.7h80.4v16.7z" fill="" p-id="11772"></path><path d="M386.1 307.3h6v554.3h-6zM101.2 574.1h6v287.5h-6zM916.7 574.1h6v287.5h-6zM631.9 307.3h6v554.3h-6z" fill="#CCCCCC" p-id="11773"></path><path d="M64 868.1h80.4v16.7H64z" fill="#FFFFFF" p-id="11774"></path><path d="M67.2 890.8h77.2l2.8-2.8 3.2-3.2v-16.7l-3.2-3.2-2.8-2.8H64l-2.8 2.8-3.2 3.2v16.7l3.2 3.2 2.8 2.8h3.2zM64 868.1h80.4v16.7H64v-16.7z" fill="#666666" p-id="11775"></path><path d="M348.9 868.1h80.4v16.7h-80.4z" fill="#FFFFFF" p-id="11776"></path><path d="M435.2 868.1l-3.2-3.2-2.8-2.8h-80.4l-2.8 2.8-3.2 3.2v16.7l3.2 3.2 2.8 2.8h80.4l2.8-2.8 3.2-3.2v-16.7z m-6 16.7h-80.4v-16.7h80.4v16.7z" fill="#666666" p-id="11777"></path><path d="M594.7 868.1h80.4v16.7h-80.4z" fill="#FFFFFF" p-id="11778"></path><path d="M594.7 862.1l-2.8 2.8-3.2 3.2v16.7l3.2 3.2 2.8 2.8h80.4l2.8-2.8 3.2-3.2v-16.7l-3.2-3.2-2.8-2.8h-80.4z m80.4 22.7h-80.4v-16.7h80.4v16.7z" fill="#666666" p-id="11779"></path><path d="M879.6 868.1H960v16.7h-80.4z" fill="#FFFFFF" p-id="11780"></path><path d="M956.7 862.1h-77.2l-2.8 2.8-3.2 3.2v16.7l3.2 3.2 2.8 2.8h80.4l2.8-2.8 3.2-3.2v-16.7l-3.2-3.2-2.8-2.8h-3.2z m3.2 22.7h-80.4v-16.7h80.4v16.7z" fill="#666666" p-id="11781"></path><path d="M226 393.4h40.7V405H226z" fill="#FFFFFF" p-id="11782"></path><path d="M229.6 410.9h37l3-3 3-3v-11.6l-3.5-3.5-2.5-2.5H226l-1.8 1.8-4.2 4.2v11.6l3.7 3.7 2.3 2.3h3.6z m-3.6-17.5h40.7V405H226v-11.6z" fill="#666666" p-id="11783"></path><path d="M757 393.4h40.7V405H757z" fill="#FFFFFF" p-id="11784"></path><path d="M760.3 410.9h37.3l2.7-2.7 3.3-3.3v-11.6l-3.9-3.9-2.1-2.1H757l-2.1 2.1-3.9 3.9v11.6l3.3 3.3 2.7 2.7h3.3z m-3.3-17.5h40.7V405H757v-11.6z" fill="#666666" p-id="11785"></path><path d="M348.7 282.9h80.4v16.7h-80.4z" fill="#FFFFFF" p-id="11786"></path><path d="M352.1 305.6h77l3-3 0.1-0.1c0 0.1-0.1 0.3-0.1 0.4v31.6c0-11.8 5.4-29.4 8.8-39.4 3.4 10 8.8 27.6 8.8 39.4v14h6v-34c0-11.8 5.4-29.4 8.8-39.4 3.4 10 8.8 27.6 8.8 39.4v34h6v-54c0-11.8 5.4-29.4 8.8-39.4 3.4 10 8.8 27.6 8.8 39.4v54h6v-74c0-11.8 5.4-29.4 8.8-39.4 3.4 10 8.8 27.6 8.8 39.4v74h6v-57.7c0.9-11.5 5.6-26.7 8.7-35.7 3.4 10 8.8 27.6 8.8 39.4v54h6v-34c0-11.8 5.4-29.4 8.8-39.4 3.4 10 8.8 27.6 8.8 39.4v34h6v-14c0-11.8 5.4-29.4 8.8-39.4 3.4 10 8.8 27.6 8.8 39.4v14h0.2v-44.9c-0.1-0.4-0.2-0.7-0.3-1.1l0.3 0.3 2.8 2.8h80.4l2.8-2.8 3.2-3.2v-16.7l-3.2-3.2-2.8-2.8h-80.4l-2.8 2.8-3.2 3.2v10.7c-1.6-4.8-2.9-8-3.1-8.4h-5.6c-0.3 0.7-3.7 9.4-6.8 20.2-2.5-17.7-10.9-39.2-11.3-40.2h-5.6c-0.3 0.7-3.7 9.4-6.8 20.2-2.5-17.7-10.9-39.2-11.3-40.2h-5.6c-0.3 0.7-3.6 9.2-6.7 19.8-2.6-17.6-10.8-38.8-11.3-39.8h-5.6c-0.4 1.1-8.8 22.5-11.3 40.2-3.1-10.8-6.5-19.5-6.8-20.2h-5.6c-0.4 1.1-8.8 22.5-11.3 40.2-3.1-10.8-6.5-19.5-6.8-20.2h-5.6c-0.4 1.1-8.8 22.5-11.3 40.2-3.1-10.8-6.5-19.5-6.8-20.2h-5.6c-0.2 0.4-1.4 3.6-3.1 8.4v-10.7l-3-3-3-3h-80.4l-2.6 2.6-3.4 3.4v16.7l3.4 3.4 2.6 2.6h4.2z m242.6-22.7h80.4v16.7h-80.4v-16.7z m-246 0h80.4v16.7h-80.4v-16.7z" fill="#666666" p-id="11787"></path><path d="M64 551.4h80.4v16.7H64z" fill="#FFFFFF" p-id="11788"></path><path d="M67.2 574.1h77.2l2.8-2.8v22.4c0-11.3 4.3-27.9 7.3-38.1 3 10.2 7.3 26.8 7.3 38.1v11h6v-31c0-11.3 4.3-27.9 7.3-38.1 3 10.2 7.3 26.8 7.3 38.1v31h6v-51c0-11.3 4.3-27.9 7.3-38.1 3 10.2 7.3 26.8 7.3 38.1v51h6v-71c0-11.3 4.3-28 7.3-38.1 3 10.2 7.3 26.8 7.3 38.1v-34.4c-2.2-8.1-4.3-14.2-4.5-14.7H215l-1.1-0.8-0.1 0.8h-0.3c-0.3 1-7.1 20.9-9.6 38.1-2.6-9.8-5.2-17.5-5.4-18.1h-5.7c-0.3 1-7.1 20.9-9.6 38.1-2.6-9.8-5.2-17.5-5.4-18.1h-5.7c-0.3 1-7.1 20.9-9.6 38.1-2.6-9.8-5.2-17.5-5.4-18.1h-5.7c-0.1 0.3-0.9 2.6-2 6.1l-2.5-2.5-2.8-2.8H64l-2.8 2.8-3.2 3.2v16.7l3.2 3.2 2.8 2.8h3.2zM64 551.4h80.4v16.7H64v-16.7z" fill="#666666" p-id="11789"></path><path d="M879.6 551.4H960v16.7h-80.4zM594.7 282.9h80.4v16.7h-80.4z" fill="#FFFFFF" p-id="11790"></path></svg>