<?xml version="1.0" standalone="no"?><!DOCTYPE svg PUBLIC "-//W3C//DTD SVG 1.1//EN" "http://www.w3.org/Graphics/SVG/1.1/DTD/svg11.dtd"><svg t="1541663433646" class="icon" style="" viewBox="0 0 1024 1024" version="1.1" xmlns="http://www.w3.org/2000/svg" p-id="3736" xmlns:xlink="http://www.w3.org/1999/xlink" width="200" height="200"><defs><style type="text/css"></style></defs><path d="M891.392 606.72c-72.704 0-131.072 58.88-131.072 131.072 0 33.28 12.8 64 33.28 87.04-74.24 73.216-174.592 115.712-281.6 115.712-100.352 0-195.072-37.376-268.288-102.912 12.8-19.968 19.968-44.032 19.968-69.12 0-72.704-58.88-131.072-131.072-131.072h-8.704c-7.68-31.232-11.776-64-11.776-96.768 0-169.472 105.984-317.952 260.608-375.296 15.36 55.808 66.048 96.768 126.464 96.768 63.488 0 116.224-45.056 128.512-104.448 159.744 48.128 274.944 192.512 283.648 361.984 0.512 13.824 12.288 24.576 26.112 23.552 13.824-0.512 24.576-12.288 23.552-26.112-10.24-196.096-146.432-361.472-333.312-411.136C616.448 45.568 563.2 0 499.2 0c-66.56 0-121.856 49.664-130.048 114.176-181.248 60.416-307.2 230.912-307.2 426.496 0 37.376 4.608 73.728 13.312 109.568C31.232 671.744 1.024 716.288 1.024 768.512c0 72.704 58.88 131.072 131.072 131.072 29.184 0 55.808-9.216 77.312-25.6 81.92 74.24 188.416 116.224 302.08 116.224 122.88 0 237.568-49.152 321.024-135.168 17.408 8.704 37.376 13.312 58.368 13.312 72.704 0 131.072-58.88 131.072-131.072 0.512-71.68-57.856-130.56-130.56-130.56zM499.2 49.664c45.056 0 81.408 36.352 81.408 81.408s-36.352 81.408-81.408 81.408-81.408-36.352-81.408-81.408S454.656 49.664 499.2 49.664zM51.2 768.512c0-45.056 36.352-81.408 81.408-81.408s81.408 36.352 81.408 81.408S177.664 849.92 132.608 849.92 51.2 813.568 51.2 768.512z m840.192 50.688c-45.056 0-81.408-36.352-81.408-81.408s36.352-81.408 81.408-81.408 81.408 36.352 81.408 81.408-36.352 81.408-81.408 81.408z" p-id="3737" fill="#8a8a8a"></path></svg>