<?xml version="1.0" standalone="no"?><!DOCTYPE svg PUBLIC "-//W3C//DTD SVG 1.1//EN" "http://www.w3.org/Graphics/SVG/1.1/DTD/svg11.dtd"><svg t="1541663654899" class="icon" style="" viewBox="0 0 1024 1024" version="1.1" xmlns="http://www.w3.org/2000/svg" p-id="12547" xmlns:xlink="http://www.w3.org/1999/xlink" width="200" height="200"><defs><style type="text/css"></style></defs><path d="M985.82922339 744.89044867l-241.70528127-241.70528129 228.67465909-228.80241129 0.76650661-0.89425883c6.64306166-8.04832597 10.09234471-16.99091081 10.09234466-26.82775448 0-9.70909146-3.32153084-18.7794285-10.09234466-26.82775109l-0.38325331-0.51100557-165.31006208-165.43781087c-8.81483262-8.81483262-20.31244163-13.66938006-32.44880511-13.66937999-12.13636346 0-23.6339725 4.85454745-32.4488051 13.66937999l-224.07561611 223.9478639-240.17226812-240.30002034c-8.81483262-8.81483262-19.80143615-13.41387552-31.93780297-13.41387555-12.26411572 0-24.27273024 4.85454745-32.83205837 13.41387555L36.25450669 215.61720207c-7.66507276 7.66507276-12.39186786 17.37416416-13.41387555 27.97751438l-0.12775225 7.79282148 0.12775225 1.14976335c1.02201109 10.60335026 5.74880281 20.18468946 13.41387555 27.97751437l240.04451588 240.17226473-183.96173485 183.83398604c-5.74880281 5.74880281-9.58133919 12.51961673-12.00861457 21.33445272l-0.12775235 0.38325333-40.62488331 184.08949052c-5.23780074 20.31244163 0.51100549 41.39138996 15.45789767 56.46603087 10.85885133 11.75311009 25.2947379 18.01291845 41.64689442 18.01292193 3.06602977 0 5.74880281-0.25550102 7.79282151-0.51100551 1.40526435-0.12775226 2.55502431-0.25550102 3.44928302-0.25550105h1.40526442l186.13350585-40.88038784 1.40526433-0.38325329c8.17607823-2.68277647 14.6913877-6.64306166 19.92918838-11.88086237l184.72824492-184.72824488 241.70528133 241.70528473c8.81483262 8.81483262 19.92918841 13.41387552 31.93780291 13.41387553 12.39186786 0 24.27273024-4.85454745 32.8320584-13.41387553l177.82967874-177.95743104c18.26842293-18.26842293 18.26842293-46.75694289 0-65.02536587z m-287.05695981-558.78377758l76.52297151-76.65072379 137.20479545 137.20479548-76.52297151 76.65072375-137.20479545-137.20479544z m93.00287684 181.40671404l-491.58664086 492.48089973L162.98370409 722.78948945l491.58664092-492.48089976 137.20479541 137.20479544z m-471.78520475 109.3550333l-19.16267836-19.16268177 119.57512683-119.57513025-44.07416637-44.20191526-119.57512685 119.70287911-58.7655575-58.76555411 119.83063132-119.9583835-44.07416302-44.07416639-119.83063466 119.9583836-62.21483713-62.21483718 155.34546955-155.34546617L474.95214853 322.03395435l-154.96221286 154.83446408z m-77.92823584 413.14740291l-140.78182733 30.91579196 30.78803969-141.03733182 109.99378764 110.12153986z m590.97708167-139.24881757l-44.0741664-44.07416643-119.19187351 119.31962924-59.40431185-59.40431184 119.57512686-119.57513028-44.07416301-44.07416634-119.57513025 119.57513022-20.5679461-20.56794269 154.45121072-154.57896302 230.33542448 228.93016352-155.34546619 155.08996514-61.44833048-61.44833058 119.31962573-119.19187694z m0 0" p-id="12548" fill="#8a8a8a"></path></svg>