<?xml version="1.0" standalone="no"?><!DOCTYPE svg PUBLIC "-//W3C//DTD SVG 1.1//EN" "http://www.w3.org/Graphics/SVG/1.1/DTD/svg11.dtd"><svg t="1541663600456" class="icon" style="" viewBox="0 0 1025 1024" version="1.1" xmlns="http://www.w3.org/2000/svg" p-id="10490" xmlns:xlink="http://www.w3.org/1999/xlink" width="200.1953125" height="200"><defs><style type="text/css"></style></defs><path d="M827.810909 395.170909l-226.676364 226.071273-29.370181 90.112 91.461818-30.766546 225.559273-225.652363-60.974546-59.764364z m32.954182-32.907636l60.928 59.764363 47.755636-47.755636-58.833454-61.719273-49.803637 49.710546zM256 954.181818h139.636364V884.363636a23.272727 23.272727 0 1 1 46.545454 0v69.818182h139.636364V884.363636a23.272727 23.272727 0 1 1 46.545454 0v69.818182h139.636364V884.363636a23.272727 23.272727 0 1 1 46.545455 0v69.818182h46.545454v-320.977454a23.272727 23.272727 0 0 1 46.545455 0v330.007272c0 18.432-19.874909 37.515636-37.562182 37.515637H60.788364a37.608727 37.608727 0 0 1-37.515637-37.794909V757.76c0-20.759273 16.709818-37.701818 37.515637-37.701818H425.890909a23.272727 23.272727 0 1 1 0 46.545454H69.818182v187.578182h139.636363V884.363636a23.272727 23.272727 0 1 1 46.545455 0v69.818182z m418.909091-884.363636v314.926545a23.272727 23.272727 0 1 1-46.545455 0V62.324364c0-21.131636 16.477091-39.051636 37.794909-39.051637h203.68291c21.317818 0 37.794909 17.92 37.794909 39.098182v127.674182a23.272727 23.272727 0 1 1-46.545455 0V69.818182h-186.181818zM116.363636 884.363636a23.272727 23.272727 0 1 1 46.545455 0v46.545455a23.272727 23.272727 0 1 1-46.545455 0v-46.545455z m186.181819 0a23.272727 23.272727 0 1 1 46.545454 0v46.545455a23.272727 23.272727 0 1 1-46.545454 0v-46.545455z m186.181818 0a23.272727 23.272727 0 1 1 46.545454 0v46.545455a23.272727 23.272727 0 1 1-46.545454 0v-46.545455z m186.181818 0a23.272727 23.272727 0 1 1 46.545454 0v46.545455a23.272727 23.272727 0 1 1-46.545454 0v-46.545455z m-161.745455-143.36l45.474909-139.496727a23.272727 23.272727 0 0 1 5.678546-9.309091l330.286545-329.402182a23.272727 23.272727 0 0 1 33.28 0.418909l90.903273 95.418182a23.272727 23.272727 0 0 1-0.372364 32.488728l-326.144 326.190545a23.272727 23.272727 0 0 1-9.029818 5.585455l-140.567272 47.336727a23.272727 23.272727 0 0 1-29.509819-29.277091z" fill="#ACACAC" p-id="10491"></path></svg>